<mxfile host="app.diagrams.net" modified="2023-08-24T09:55:54.487Z" agent="Mozilla/5.0 (Windows NT 10.0; Win64; x64) AppleWebKit/537.36 (KHTML, like Gecko) Chrome/114.0.0.0 YaBrowser/23.7.3.823 Yowser/2.5 Safari/537.36" etag="KVxdxUBSMtuZrgzN6bpF" version="21.6.8" type="device">
  <diagram id="C5RBs43oDa-KdzZeNtuy" name="Page-1">
    <mxGraphModel dx="784" dy="589" grid="1" gridSize="10" guides="1" tooltips="1" connect="1" arrows="1" fold="1" page="1" pageScale="1" pageWidth="827" pageHeight="1169" math="0" shadow="0">
      <root>
        <mxCell id="WIyWlLk6GJQsqaUBKTNV-0" />
        <mxCell id="WIyWlLk6GJQsqaUBKTNV-1" parent="WIyWlLk6GJQsqaUBKTNV-0" />
        <mxCell id="_0gkZcLQSSdci-LHx_5b-1" value="start" style="rounded=1;whiteSpace=wrap;html=1;" parent="WIyWlLk6GJQsqaUBKTNV-1" vertex="1">
          <mxGeometry x="350" y="100" width="80" height="40" as="geometry" />
        </mxCell>
        <mxCell id="_0gkZcLQSSdci-LHx_5b-9" value="&lt;font style=&quot;&quot;&gt;&lt;br&gt;&lt;font style=&quot;font-size: 12px;&quot;&gt;j = 0 ;&lt;br&gt;&amp;nbsp; string [ j ]array ;&lt;br&gt;&amp;nbsp; string[ ] sorted ;&lt;/font&gt;&lt;/font&gt;" style="shape=parallelogram;perimeter=parallelogramPerimeter;whiteSpace=wrap;html=1;fixedSize=1;" parent="WIyWlLk6GJQsqaUBKTNV-1" vertex="1">
          <mxGeometry x="295" y="180" width="190" height="60" as="geometry" />
        </mxCell>
        <mxCell id="_0gkZcLQSSdci-LHx_5b-12" value="Желаете ввести строки исходного массива с клавиатуры ?" style="rhombus;whiteSpace=wrap;html=1;" parent="WIyWlLk6GJQsqaUBKTNV-1" vertex="1">
          <mxGeometry x="165" y="310" width="450" height="90" as="geometry" />
        </mxCell>
        <mxCell id="_0gkZcLQSSdci-LHx_5b-18" style="edgeStyle=orthogonalEdgeStyle;rounded=0;orthogonalLoop=1;jettySize=auto;html=1;exitX=0.5;exitY=1;exitDx=0;exitDy=0;" parent="WIyWlLk6GJQsqaUBKTNV-1" edge="1">
          <mxGeometry relative="1" as="geometry">
            <mxPoint x="392.5" y="875" as="sourcePoint" />
            <mxPoint x="392.5" y="875" as="targetPoint" />
          </mxGeometry>
        </mxCell>
        <mxCell id="_0gkZcLQSSdci-LHx_5b-33" value="Вывод на зкран массива rsorted [ ]" style="shape=document;whiteSpace=wrap;html=1;boundedLbl=1;" parent="WIyWlLk6GJQsqaUBKTNV-1" vertex="1">
          <mxGeometry x="284" y="1000" width="260" height="50" as="geometry" />
        </mxCell>
        <mxCell id="_0gkZcLQSSdci-LHx_5b-34" value="exit" style="rounded=1;whiteSpace=wrap;html=1;" parent="WIyWlLk6GJQsqaUBKTNV-1" vertex="1">
          <mxGeometry x="374" y="1080" width="80" height="40" as="geometry" />
        </mxCell>
        <mxCell id="_0gkZcLQSSdci-LHx_5b-36" value="" style="endArrow=classic;html=1;rounded=0;exitX=0.495;exitY=0.863;exitDx=0;exitDy=0;exitPerimeter=0;entryX=0.5;entryY=0;entryDx=0;entryDy=0;" parent="WIyWlLk6GJQsqaUBKTNV-1" source="_0gkZcLQSSdci-LHx_5b-33" target="_0gkZcLQSSdci-LHx_5b-34" edge="1">
          <mxGeometry width="50" height="50" relative="1" as="geometry">
            <mxPoint x="530" y="930" as="sourcePoint" />
            <mxPoint x="580" y="880" as="targetPoint" />
          </mxGeometry>
        </mxCell>
        <mxCell id="9njiaVPQ9QJeUUoQlHI0-0" value="" style="endArrow=classic;html=1;rounded=0;entryX=0.5;entryY=0;entryDx=0;entryDy=0;exitX=0.5;exitY=1;exitDx=0;exitDy=0;" parent="WIyWlLk6GJQsqaUBKTNV-1" source="_0gkZcLQSSdci-LHx_5b-1" target="_0gkZcLQSSdci-LHx_5b-9" edge="1">
          <mxGeometry width="50" height="50" relative="1" as="geometry">
            <mxPoint x="390.4000000000001" y="214.39999999999998" as="sourcePoint" />
            <mxPoint x="430" y="280" as="targetPoint" />
          </mxGeometry>
        </mxCell>
        <mxCell id="yilw0eWiS2ek3eIa9h9I-2" value="" style="endArrow=classic;html=1;rounded=0;exitX=0.5;exitY=1;exitDx=0;exitDy=0;entryX=0.5;entryY=0;entryDx=0;entryDy=0;" edge="1" parent="WIyWlLk6GJQsqaUBKTNV-1" source="_0gkZcLQSSdci-LHx_5b-9" target="_0gkZcLQSSdci-LHx_5b-12">
          <mxGeometry width="50" height="50" relative="1" as="geometry">
            <mxPoint x="370" y="430" as="sourcePoint" />
            <mxPoint x="420" y="380" as="targetPoint" />
          </mxGeometry>
        </mxCell>
        <mxCell id="yilw0eWiS2ek3eIa9h9I-6" value="&lt;font style=&quot;font-size: 12px;&quot;&gt;Присваиваем готовые значения массиву&lt;/font&gt;" style="rounded=0;whiteSpace=wrap;html=1;" vertex="1" parent="WIyWlLk6GJQsqaUBKTNV-1">
          <mxGeometry x="610" y="440" width="120" height="60" as="geometry" />
        </mxCell>
        <mxCell id="yilw0eWiS2ek3eIa9h9I-7" value="" style="endArrow=classic;html=1;rounded=0;exitX=0;exitY=0.5;exitDx=0;exitDy=0;entryX=0.5;entryY=0;entryDx=0;entryDy=0;" edge="1" parent="WIyWlLk6GJQsqaUBKTNV-1" source="_0gkZcLQSSdci-LHx_5b-12">
          <mxGeometry width="50" height="50" relative="1" as="geometry">
            <mxPoint x="70" y="250" as="sourcePoint" />
            <mxPoint x="130" y="440" as="targetPoint" />
            <Array as="points">
              <mxPoint x="130" y="355" />
            </Array>
          </mxGeometry>
        </mxCell>
        <mxCell id="yilw0eWiS2ek3eIa9h9I-8" value="" style="endArrow=classic;html=1;rounded=0;exitX=1;exitY=0.5;exitDx=0;exitDy=0;entryX=0.5;entryY=0;entryDx=0;entryDy=0;" edge="1" parent="WIyWlLk6GJQsqaUBKTNV-1" source="_0gkZcLQSSdci-LHx_5b-12" target="yilw0eWiS2ek3eIa9h9I-6">
          <mxGeometry width="50" height="50" relative="1" as="geometry">
            <mxPoint x="690" y="300" as="sourcePoint" />
            <mxPoint x="740" y="250" as="targetPoint" />
            <Array as="points">
              <mxPoint x="670" y="355" />
            </Array>
          </mxGeometry>
        </mxCell>
        <mxCell id="yilw0eWiS2ek3eIa9h9I-9" value="Ввод&amp;nbsp; данных с клавиатуры&amp;nbsp;" style="shape=parallelogram;perimeter=parallelogramPerimeter;whiteSpace=wrap;html=1;fixedSize=1;" vertex="1" parent="WIyWlLk6GJQsqaUBKTNV-1">
          <mxGeometry x="40" y="440" width="180" height="40" as="geometry" />
        </mxCell>
        <mxCell id="yilw0eWiS2ek3eIa9h9I-10" value="Truer" style="text;html=1;strokeColor=none;fillColor=none;align=center;verticalAlign=middle;whiteSpace=wrap;rounded=0;" vertex="1" parent="WIyWlLk6GJQsqaUBKTNV-1">
          <mxGeometry x="90" y="320" width="60" height="30" as="geometry" />
        </mxCell>
        <mxCell id="yilw0eWiS2ek3eIa9h9I-11" value="False" style="text;html=1;strokeColor=none;fillColor=none;align=center;verticalAlign=middle;whiteSpace=wrap;rounded=0;" vertex="1" parent="WIyWlLk6GJQsqaUBKTNV-1">
          <mxGeometry x="630" y="310" width="60" height="30" as="geometry" />
        </mxCell>
        <mxCell id="yilw0eWiS2ek3eIa9h9I-12" value="Печатаем исходный массив string [ ] array" style="shape=document;whiteSpace=wrap;html=1;boundedLbl=1;" vertex="1" parent="WIyWlLk6GJQsqaUBKTNV-1">
          <mxGeometry x="333" y="545" width="120" height="65" as="geometry" />
        </mxCell>
        <mxCell id="yilw0eWiS2ek3eIa9h9I-13" value="" style="endArrow=classic;html=1;rounded=0;exitX=0.5;exitY=1;exitDx=0;exitDy=0;entryX=0.5;entryY=0;entryDx=0;entryDy=0;" edge="1" parent="WIyWlLk6GJQsqaUBKTNV-1" source="yilw0eWiS2ek3eIa9h9I-9" target="yilw0eWiS2ek3eIa9h9I-12">
          <mxGeometry width="50" height="50" relative="1" as="geometry">
            <mxPoint x="100" y="630" as="sourcePoint" />
            <mxPoint x="150" y="580" as="targetPoint" />
            <Array as="points">
              <mxPoint x="130" y="520" />
              <mxPoint x="393" y="520" />
            </Array>
          </mxGeometry>
        </mxCell>
        <mxCell id="yilw0eWiS2ek3eIa9h9I-14" value="" style="endArrow=classic;html=1;rounded=0;exitX=0.5;exitY=1;exitDx=0;exitDy=0;entryX=0.5;entryY=0;entryDx=0;entryDy=0;" edge="1" parent="WIyWlLk6GJQsqaUBKTNV-1" source="yilw0eWiS2ek3eIa9h9I-6" target="yilw0eWiS2ek3eIa9h9I-12">
          <mxGeometry width="50" height="50" relative="1" as="geometry">
            <mxPoint x="560" y="640" as="sourcePoint" />
            <mxPoint x="610" y="590" as="targetPoint" />
            <Array as="points">
              <mxPoint x="670" y="520" />
              <mxPoint x="393" y="520" />
            </Array>
          </mxGeometry>
        </mxCell>
        <mxCell id="yilw0eWiS2ek3eIa9h9I-16" value="" style="endArrow=classic;html=1;rounded=0;exitX=0.512;exitY=0.883;exitDx=0;exitDy=0;exitPerimeter=0;entryX=0.5;entryY=0;entryDx=0;entryDy=0;" edge="1" parent="WIyWlLk6GJQsqaUBKTNV-1" source="yilw0eWiS2ek3eIa9h9I-12">
          <mxGeometry width="50" height="50" relative="1" as="geometry">
            <mxPoint x="590" y="630" as="sourcePoint" />
            <mxPoint x="393" y="670" as="targetPoint" />
          </mxGeometry>
        </mxCell>
        <mxCell id="yilw0eWiS2ek3eIa9h9I-18" value="Добавляем значение в новый массив sorted [ ] ;" style="rounded=0;whiteSpace=wrap;html=1;" vertex="1" parent="WIyWlLk6GJQsqaUBKTNV-1">
          <mxGeometry x="374" y="830" width="190" height="60" as="geometry" />
        </mxCell>
        <mxCell id="yilw0eWiS2ek3eIa9h9I-19" value="j &amp;lt; Length - 1 ?" style="rhombus;whiteSpace=wrap;html=1;" vertex="1" parent="WIyWlLk6GJQsqaUBKTNV-1">
          <mxGeometry x="310" y="670" width="170" height="80" as="geometry" />
        </mxCell>
        <mxCell id="yilw0eWiS2ek3eIa9h9I-20" value="array {i} &amp;gt; 3 ?" style="rhombus;whiteSpace=wrap;html=1;" vertex="1" parent="WIyWlLk6GJQsqaUBKTNV-1">
          <mxGeometry x="170" y="760" width="180" height="80" as="geometry" />
        </mxCell>
        <mxCell id="yilw0eWiS2ek3eIa9h9I-21" value="" style="endArrow=classic;html=1;rounded=0;exitX=0;exitY=0.5;exitDx=0;exitDy=0;entryX=0.5;entryY=0;entryDx=0;entryDy=0;" edge="1" parent="WIyWlLk6GJQsqaUBKTNV-1" source="yilw0eWiS2ek3eIa9h9I-19" target="yilw0eWiS2ek3eIa9h9I-20">
          <mxGeometry width="50" height="50" relative="1" as="geometry">
            <mxPoint x="150" y="670" as="sourcePoint" />
            <mxPoint x="200" y="620" as="targetPoint" />
            <Array as="points">
              <mxPoint x="260" y="710" />
            </Array>
          </mxGeometry>
        </mxCell>
        <mxCell id="yilw0eWiS2ek3eIa9h9I-22" value="Truer" style="text;html=1;strokeColor=none;fillColor=none;align=center;verticalAlign=middle;whiteSpace=wrap;rounded=0;" vertex="1" parent="WIyWlLk6GJQsqaUBKTNV-1">
          <mxGeometry x="220" y="680" width="60" height="30" as="geometry" />
        </mxCell>
        <mxCell id="yilw0eWiS2ek3eIa9h9I-23" value="" style="endArrow=classic;html=1;rounded=0;exitX=1;exitY=0.5;exitDx=0;exitDy=0;entryX=0.5;entryY=0;entryDx=0;entryDy=0;" edge="1" parent="WIyWlLk6GJQsqaUBKTNV-1" source="yilw0eWiS2ek3eIa9h9I-20" target="yilw0eWiS2ek3eIa9h9I-18">
          <mxGeometry width="50" height="50" relative="1" as="geometry">
            <mxPoint x="530" y="780" as="sourcePoint" />
            <mxPoint x="580" y="730" as="targetPoint" />
            <Array as="points">
              <mxPoint x="469" y="800" />
            </Array>
          </mxGeometry>
        </mxCell>
        <mxCell id="yilw0eWiS2ek3eIa9h9I-24" value="False" style="text;html=1;strokeColor=none;fillColor=none;align=center;verticalAlign=middle;whiteSpace=wrap;rounded=0;" vertex="1" parent="WIyWlLk6GJQsqaUBKTNV-1">
          <mxGeometry x="420" y="770" width="60" height="30" as="geometry" />
        </mxCell>
        <mxCell id="yilw0eWiS2ek3eIa9h9I-25" value="" style="endArrow=classic;html=1;rounded=0;exitX=0.5;exitY=1;exitDx=0;exitDy=0;entryX=0.5;entryY=0;entryDx=0;entryDy=0;" edge="1" parent="WIyWlLk6GJQsqaUBKTNV-1" source="yilw0eWiS2ek3eIa9h9I-18" target="yilw0eWiS2ek3eIa9h9I-19">
          <mxGeometry width="50" height="50" relative="1" as="geometry">
            <mxPoint x="620" y="930" as="sourcePoint" />
            <mxPoint x="670" y="880" as="targetPoint" />
            <Array as="points">
              <mxPoint x="469" y="920" />
              <mxPoint x="110" y="920" />
              <mxPoint x="110" y="640" />
              <mxPoint x="395" y="640" />
            </Array>
          </mxGeometry>
        </mxCell>
        <mxCell id="yilw0eWiS2ek3eIa9h9I-28" value="" style="endArrow=classic;html=1;rounded=0;exitX=0;exitY=0.5;exitDx=0;exitDy=0;entryX=0.5;entryY=0;entryDx=0;entryDy=0;" edge="1" parent="WIyWlLk6GJQsqaUBKTNV-1" source="yilw0eWiS2ek3eIa9h9I-20" target="yilw0eWiS2ek3eIa9h9I-19">
          <mxGeometry width="50" height="50" relative="1" as="geometry">
            <mxPoint x="180" y="680" as="sourcePoint" />
            <mxPoint x="230" y="630" as="targetPoint" />
            <Array as="points">
              <mxPoint x="110" y="800" />
              <mxPoint x="110" y="640" />
              <mxPoint x="395" y="640" />
            </Array>
          </mxGeometry>
        </mxCell>
        <mxCell id="yilw0eWiS2ek3eIa9h9I-29" value="" style="endArrow=classic;html=1;rounded=0;exitX=1;exitY=0.5;exitDx=0;exitDy=0;entryX=0.5;entryY=0;entryDx=0;entryDy=0;" edge="1" parent="WIyWlLk6GJQsqaUBKTNV-1" source="yilw0eWiS2ek3eIa9h9I-19" target="_0gkZcLQSSdci-LHx_5b-33">
          <mxGeometry width="50" height="50" relative="1" as="geometry">
            <mxPoint x="620" y="690" as="sourcePoint" />
            <mxPoint x="670" y="640" as="targetPoint" />
            <Array as="points">
              <mxPoint x="630" y="710" />
              <mxPoint x="630" y="950" />
              <mxPoint x="414" y="950" />
            </Array>
          </mxGeometry>
        </mxCell>
        <mxCell id="yilw0eWiS2ek3eIa9h9I-31" value="Truer" style="text;html=1;strokeColor=none;fillColor=none;align=center;verticalAlign=middle;whiteSpace=wrap;rounded=0;" vertex="1" parent="WIyWlLk6GJQsqaUBKTNV-1">
          <mxGeometry x="130" y="760" width="60" height="30" as="geometry" />
        </mxCell>
        <mxCell id="yilw0eWiS2ek3eIa9h9I-32" value="False" style="text;html=1;strokeColor=none;fillColor=none;align=center;verticalAlign=middle;whiteSpace=wrap;rounded=0;" vertex="1" parent="WIyWlLk6GJQsqaUBKTNV-1">
          <mxGeometry x="530" y="680" width="60" height="30" as="geometry" />
        </mxCell>
      </root>
    </mxGraphModel>
  </diagram>
</mxfile>
